<?xml version="1.0" encoding="UTF-8"?>
<svg width="500" height="399.43" version="1.1" viewBox="0 0 500 399.43" xmlns="http://www.w3.org/2000/svg">
	<g transform="translate(-277.52,-20)">
		<g transform="matrix(1.0582 0 0 1.0582 -16.164 -1.1649)" stroke="#000">
			<g stroke-width="1.6511px">
				<path d="m501.17 145 123.83-123.83 123.83 123.83-41.277 41.278-82.555-82.555-82.555 82.555z"/>
				<path d="m501.17 250 123.83-123.83 123.83 123.83-41.277 41.278-82.555-82.555-82.555 82.555z"/>
				<path d="m501.17 355 123.83-123.83 123.83 123.83-41.277 41.278-82.555-82.555-82.555 82.555z"/>
			</g>
			<g stroke-width="1px">
				<path d="m478.73 144.5 50-50h-200l-50 50z"/>
				<path d="m478.73 249.5 50-50h-200l-50 50z"/>
				<path d="m478.73 354.5 50-50h-200l-50 50z"/>
			</g>
		</g>
	</g>
</svg>
