<?xml version="1.0" encoding="UTF-8" standalone="no"?>
<svg
   width="500"
   height="399.42963"
   viewBox="0 0 500 399.42963"
   version="1.1"
   id="svg5"
   xmlns="http://www.w3.org/2000/svg"
   xmlns:svg="http://www.w3.org/2000/svg">
  <defs
     id="defs2" />
  <g
     id="layer1"
     transform="translate(-277.52,-20)">
    <g
       id="g9224"
       transform="matrix(1.0582459,0,0,1.0582459,-16.164398,-1.1649177)">
      <path
         style="fill:#000000;fill-opacity:1;stroke:#000000;stroke-width:1.6511px;stroke-linecap:butt;stroke-linejoin:miter;stroke-opacity:1"
         d="M 501.1675,144.99999 624.99999,21.167504 748.83248,144.99999 l -41.27749,41.27751 -82.555,-82.555 -82.55499,82.555 z"
         id="path2208" />
      <path
         style="fill:#000000;fill-opacity:1;stroke:#000000;stroke-width:1.6511px;stroke-linecap:butt;stroke-linejoin:miter;stroke-opacity:1"
         d="m 501.1675,249.99998 123.83249,-123.83248 123.83249,123.83248 -41.27749,41.27751 -82.555,-82.555 -82.55499,82.555 z"
         id="path2208-6" />
      <path
         style="fill:#000000;fill-opacity:1;stroke:#000000;stroke-width:1.6511px;stroke-linecap:butt;stroke-linejoin:miter;stroke-opacity:1"
         d="m 501.1675,354.99998 123.83249,-123.83248 123.83249,123.83248 -41.27749,41.27751 -82.555,-82.555 -82.55499,82.555 z"
         id="path2208-3" />
      <path
         style="fill:#000000;fill-opacity:1;stroke:#000000;stroke-width:1px;stroke-linecap:butt;stroke-linejoin:miter;stroke-opacity:1"
         d="m 478.7271,144.5 49.9999,-50 h -200 l -49.9999,50 z"
         id="path4758" />
      <path
         style="fill:#000000;fill-opacity:1;stroke:#000000;stroke-width:1px;stroke-linecap:butt;stroke-linejoin:miter;stroke-opacity:1"
         d="m 478.7271,249.5 49.9999,-50 h -200 l -49.9999,50 z"
         id="path4758-5" />
      <path
         style="fill:#000000;fill-opacity:1;stroke:#000000;stroke-width:1px;stroke-linecap:butt;stroke-linejoin:miter;stroke-opacity:1"
         d="m 478.7271,354.5 49.9999,-50 h -200 l -49.9999,50 z"
         id="path4758-5-8" />
    </g>
  </g>
</svg>
